<?xml version="1.0" encoding="iso-8859-1"?>
<!-- Generator: Adobe Illustrator 19.0.0, SVG Export Plug-In . SVG Version: 6.00 Build 0)  -->
<svg version="1.1" id="Layer_1" xmlns="http://www.w3.org/2000/svg" xmlns:xlink="http://www.w3.org/1999/xlink" x="0px" y="0px"
	 viewBox="0 0 346.182 346.182" style="enable-background:new 0 0 346.182 346.182;" xml:space="preserve">
<g>
	<g>
		<path d="M274.473,0H82.836C60.581,0,43.272,18.546,43.272,39.564v13.6c-6.182,1.237-11.127,6.182-11.127,12.364
			s4.945,11.127,11.128,12.364v190.4c-6.182,1.236-11.128,6.181-11.128,12.364s4.945,11.127,11.128,12.364v13.6
			c0,22.255,18.546,39.564,39.564,39.564h37.091h154.545c22.255,0,39.564-18.546,39.564-39.564V39.564
			C314.036,18.546,295.491,0,274.473,0z M107.564,321.455H82.837c-8.655,0-14.836-7.418-14.836-14.836v-13.6h8.654
			c7.418,0,12.364-4.945,12.364-12.364c0-7.418-4.945-12.364-12.364-12.364H68V77.891h8.654c7.418,0,12.364-4.945,12.364-12.364
			c0-7.418-4.945-12.364-12.364-12.364H68v-13.6c0-7.418,6.182-14.836,14.836-14.836h24.727V321.455z M289.309,306.618
			c0,8.655-7.418,14.836-14.836,14.836H132.291V24.727h142.182c8.655,0,14.836,7.418,14.836,14.836V306.618z"/>
	</g>
</g>
<g>
	<g>
		<path d="M258.4,192.873H150.836c-7.418,0-12.364,4.945-12.364,12.364c0,7.418,4.945,12.364,12.364,12.364H258.4
			c7.418,0,12.364-4.945,12.364-12.364C270.763,197.818,265.818,192.873,258.4,192.873z"/>
	</g>
</g>
<g>
	<g>
		<path d="M258.4,128.582H150.836c-7.418,0-12.364,4.945-12.364,12.364c0,7.418,4.945,12.364,12.364,12.364H258.4
			c7.418,0,12.364-4.945,12.364-12.364C270.763,133.527,265.818,128.582,258.4,128.582z"/>
	</g>
</g>
<g>
	<g>
		<path d="M258.4,64.291H150.836c-7.418,0-12.364,4.945-12.364,12.364s4.945,12.364,12.364,12.364H258.4
			c7.418,0,12.364-4.945,12.364-12.364S265.818,64.291,258.4,64.291z"/>
	</g>
</g>
<g>
	<g>
		<path d="M258.4,257.164H150.836c-7.418,0-12.364,4.945-12.364,12.364c0,7.418,4.945,12.364,12.364,12.364H258.4
			c7.418,0,12.364-4.945,12.364-12.364C270.763,262.109,265.818,257.164,258.4,257.164z"/>
	</g>
</g>
<g>
</g>
<g>
</g>
<g>
</g>
<g>
</g>
<g>
</g>
<g>
</g>
<g>
</g>
<g>
</g>
<g>
</g>
<g>
</g>
<g>
</g>
<g>
</g>
<g>
</g>
<g>
</g>
<g>
</g>
</svg>
